# xmcd CD database file
#
# Track frame offsets:
#	150
#	15334
#	28381
#	42844
#	58144
#	72862
#	86008
#	104342
#	119641
#	136864
#	150200
#	169089
#	184850
#	203084
#	219655
#	235082
#	256743
#	274313
#	287170
#	300568
#
# Disc length: 4249 seconds
#
# Revision: 0
# Processed by: cddbd v1.5.2PL0 Copyright (c) Steve Scherf et al.
# Submitted via: CDex 1.60beta1-cs1
#
DISCID=1b109714
DTITLE=Chrystian and Ralf - Em Foco
DYEAR=2007
DGENRE=Sertanejo
TTITLE0=Com Você
TTITLE1=A Semente do Amor
TTITLE2=Chora Peito
TTITLE3=Escravo do Amor
TTITLE4=Canalha
TTITLE5=Nas Quebradas da Noite
TTITLE6=O Que Tiver Que Vir, Virá
TTITLE7=Onde Você For Eu Vou
TTITLE8=Ausência
TTITLE9=Vira, Virou
TTITLE10=Um Cantinho do Seu Coração
TTITLE11=Loucura Demais
TTITLE12=O Amor Não é Paixão
TTITLE13=Nova York
TTITLE14=Cheiro de Xampu
TTITLE15=Olhos de Luar
TTITLE16=Quem Será Seu Outro Amor
TTITLE17=Quarto Vizinho
TTITLE18=Vestido de Seda
TTITLE19=Entre Ela e Eu
EXTD=YEAR: 2007
EXTT0=
EXTT1=
EXTT2=
EXTT3=
EXTT4=
EXTT5=
EXTT6=
EXTT7=
EXTT8=
EXTT9=
EXTT10=
EXTT11=
EXTT12=
EXTT13=
EXTT14=
EXTT15=
EXTT16=
EXTT17=
EXTT18=
EXTT19=
PLAYORDER=
